Simulation
nRows=49
nColumns=15
endheader
time  TH_x TH_y TH_z SC_y  SC_z  SC_x  AC_y  AC_z  AC_x  GH_y  GH_z  GH_yy  EL_x  PS_y
0.75  0.000000  0.000000  0.000000  -33.85809315766503  2.074000774106706  19.947907074495546  61.00052982454074  2.194145955309411  -12.850799820968348  20.52316988817006  33.233311532924795  -17.42106404227044  19.938547718855922  0.000000
0.765  0.000000  0.000000  0.000000  -34.020402371518124  2.2166173133048512  20.194581118364603  61.090455708429104  2.588456446594034  -12.770099841826266  20.599110381136235  33.738866222966266  -17.7554376067749  19.73657092957444  0.000000
0.78  0.000000  0.000000  0.000000  -34.192710100001804  2.363928287956127  20.448653573515006  61.181388043521906  2.9737250795334607  -12.677842055629847  20.682324054631504  34.229025722748275  -18.088983151129597  19.533587099553955  0.000000
0.7949999999999999  0.000000  0.000000  0.000000  -34.375789590593605  2.5151225225646114  20.71190412059977  61.27504544767852  3.347109789344462  -12.573593636108491  20.77185901270596  34.703894601711305  -18.421715208588587  19.329847815453796  0.000000
0.8099999999999999  0.000000  0.000000  0.000000  -34.57100829917569  2.6698952053795835  20.984419426083136  61.37393756703089  3.706308658195736  -12.455827616883164  20.866642650076074  35.16402945574492  -18.753894715883042  19.125545307178076  0.000000
0.825  0.000000  0.000000  0.000000  -34.779990371760626  2.827970103276139  21.266509020003955  61.480866677923466  4.048899431039829  -12.322686759113248  20.965490733178175  35.60964082978359  -19.085435712829298  18.920849806523012  0.000000
0.84  0.000000  0.000000  0.000000  -35.00368468283089  2.988392431413196  21.558780266847933  61.598098393597326  4.372616125834983  -12.173673402344848  21.067485308708157  36.041182985022154  -19.41625082635142  18.71612705413273  0.000000
0.855  0.000000  0.000000  0.000000  -35.2422746688221  3.1497594909504207  21.861502267282805  61.727251727546225  4.676327937040518  -12.009211765236913  21.171995865936506  36.45876329946644  -19.74594796816911  18.511950977030082  0.000000
0.87  0.000000  0.000000  0.000000  -35.49505062923446  3.3105008206152506  22.174304034154286  61.868761376043  4.959830962794198  -11.830823545912951  21.27892608366666  36.862659132735295  -20.074073977986718  18.30912167110071  0.000000
0.885  0.000000  0.000000  0.000000  -35.76069278093033  3.4689926184044806  22.496305612672366  62.022059619385715  5.22414878290967  -11.640591705201174  21.38854551068943  37.25264844892684  -20.399837651558162  18.108603267168366  0.000000
0.8999999999999999  0.000000  0.000000  0.000000  -36.037531366468855  3.6236628689282484  22.826181548436292  62.185590625066936  5.47081113921612  -11.441421897395271  21.50138880114271  37.62874592374175  -20.722447564564927  17.911764114238935  0.000000
0.9149999999999999  0.000000  0.000000  0.000000  -36.3242007291387  3.773336816570059  23.162432779471782  62.35759590418986  5.701433212598883  -11.235628566159209  21.61768798903626  37.99080436024915  -21.040964036366727  17.7191990535358  0.000000
0.9299999999999999  0.000000  0.000000  0.000000  -36.61820111232319  3.91709040859976  23.50288867679277  62.535702579140505  5.917846829766638  -11.025870641183587  21.736027334799132  38.338834927357496  -21.354781483872767  17.53166843586449  0.000000
0.945  0.000000  0.000000  0.000000  -36.917334830719206  4.054207121068806  23.84605629955443  62.718066286865366  6.121507115523766  -10.814138638752398  21.854126091504764  38.67231414570895  -21.662926456905247  17.349577473372424  0.000000
0.96  0.000000  0.000000  0.000000  -37.22044195563654  4.184249942721237  24.190789137148922  62.903850863897695  6.312838350532437  -10.601847914392643  21.970453015097306  38.99167323660797  -21.96471877121066  17.172479482580112  0.000000
0.975  0.000000  0.000000  0.000000  -37.52613898491742  4.306747051201516  24.53579105166757  63.0920424056866  6.493233416728791  -10.390257436436743  22.083876162179944  39.296599268534564  -22.25910960480875  17.001340635897726  0.000000
0.99  0.000000  0.000000  0.000000  -37.83320074707415  4.4213151522340555  24.87969155047366  63.2818938784994  6.6635803455377465  -10.180608849863972  22.19405863872277  39.587644047829514  -22.544942679568138  16.83674360676598  0.000000
1.005  0.000000  0.000000  0.000000  -38.14038502932963  4.527411634762128  25.221292756903768  63.47288031393857  6.824752806854143  -9.973935286360062  22.30063813453621  39.86505854270713  -22.821222044591785  16.67927424233043  0.000000
1.02  0.000000  0.000000  0.000000  -38.44588048414807  4.625165774255217  25.55888867082623  63.66363737616949  6.977168813780314  -9.77145149151702  22.402543292036526  40.12937221677646  -23.086951588858184  16.530152660113067  0.000000
1.035  0.000000  0.000000  0.000000  -38.74845045312708  4.715017736899001  25.891462600178937  63.8530458083386  7.120475014008689  -9.573493430498926  22.49826394547697  40.38063781308162  -23.341083776298657  16.389603887228212  0.000000
1.05  0.000000  0.000000  0.000000  -39.04642337587459  4.797081885928063  26.218173863813277  64.03981488539574  7.25391060375256  -9.381349571660838  22.5859994537685  40.61949623011107  -23.582704401037926  16.257927824089503  0.000000
1.065  0.000000  0.000000  0.000000  -39.33826970495298  4.871515951931225  26.538191137389425  64.22290999652883  7.377763413540509  -9.196182391824843  22.664441380649784  40.8455574539465  -23.810633848877583  16.13607718558733  0.000000
1.08  0.000000  0.000000  0.000000  -39.62305182961405  4.938833511534083  26.849926441991016  64.40181830743774  7.492340078532689  -9.018270189599226  22.733600925064426  41.05944246693569  -24.024014606863727  16.02406024813612  0.000000
1.095  0.000000  0.000000  0.000000  -39.89977696516924  4.999371964726504  27.151219078233567  64.57616989758397  7.5991050078988005  -8.847109674002068  22.793596105106463  41.26107197863798  -24.222176986296798  15.922466636678633  0.000000
1.1099999999999999  0.000000  0.000000  0.000000  -40.166559411439295  5.053674359831045  27.440316151812077  64.74459885429526  7.6984736576381145  -8.68308300758712  22.84422270131289  41.45107635350148  -24.404236043080335  15.83242946853885  0.000000
1.125  0.000000  0.000000  0.000000  -40.42162485980555  5.102334561725672  27.717165535716354  64.90637652427219  7.7902635408594705  -8.52714189020972  22.885334116323655  41.62916943457333  -24.569522085834038  15.754480221305506  0.000000
1.14  0.000000  0.000000  0.000000  -40.6632873359392  5.145783246306644  27.980780824570907  65.06047435561162  7.874367497113601  -8.380040336363498  22.916769122803046  41.796163743029716  -24.71749488696745  15.688986263964862  0.000000
1.155  0.000000  0.000000  0.000000  -40.8902448878493  5.184497031875896  28.230504939969467  65.20636147192134  7.951191842781343  -8.241927651932816  22.93828212049071  41.95182172298781  -24.847822958064004  15.636158531977962  0.000000
1.17  0.000000  0.000000  0.000000  -41.10094257439515  5.219622968906906  28.46528507873913  65.34265163000049  8.020712232132006  -8.113013221973397  22.950175329582436  42.096642192820134  -24.96036924313779  15.596328552092908  0.000000
1.185  0.000000  0.000000  0.000000  -41.29533168257174  5.252005038278408  28.684747802315243  65.46865044400651  8.083489581657735  -7.993039739074945  22.953860423881814  42.23014652136708  -25.05503610642217  15.570040036690058  0.000000
1.2  0.000000  0.000000  0.000000  -41.475336976454386  5.2819066602342994  28.887340836710695  65.58421371697699  8.139380629679406  -7.881049215846936  22.951069654255157  42.35425477351374  -25.132637758545762  15.557591416281245  0.000000
1.2149999999999999  0.000000  0.000000  0.000000  -41.641935324996474  5.309460994417978  29.072552266644752  65.68878073461671  8.188635644162886  -7.77632317255252  22.941742249831478  42.46946932547136  -25.194009447277217  15.558438159073692  0.000000
1.23  0.000000  0.000000  0.000000  -41.7919048917726  5.336911781398628  29.24007222239492  65.78008652411648  8.23101713721811  -7.680727674175837  22.922756473552894  42.57592221866687  -25.240540167332966  15.571503053920992  0.000000
1.2449999999999999  0.000000  0.000000  0.000000  -41.92488998781372  5.3645014690333355  29.39011745003128  65.85847122979305  8.267708080840189  -7.594733696298606  22.891206647511158  42.672766690410114  -25.273692225697026  15.594345254920809  0.000000
1.26  0.000000  0.000000  0.000000  -42.043264674747604  5.391225543878436  29.522100381052752  65.92455669264545  8.299099933555958  -7.517694169736629  22.846381180502583  42.761464871208084  -25.295619559241857  15.625057216988722  0.000000
1.275  0.000000  0.000000  0.000000  -42.14880462004759  5.416662957518958  29.63579406026588  65.97971552916103  8.326967534542746  -7.450213123902261  22.78876654983948  42.841382524596966  -25.308918698290004  15.662254478001094  0.000000
1.29  0.000000  0.000000  0.000000  -42.24226816066282  5.440918679926036  29.730352631300143  66.02275041857823  8.352196206732529  -7.392055552051648  22.71994702789787  42.91228495147991  -25.315828399039738  15.705169184044689  0.000000
1.305  0.000000  0.000000  0.000000  -42.32437940144332  5.463271367898356  29.80496992140516  66.05508228776037  8.377196291476423  -7.344233338597913  22.642443849171343  42.9720435746954  -25.319334789719086  15.752071143178815  0.000000
1.3199999999999998  0.000000  0.000000  0.000000  -42.39492553191839  5.483510342584003  29.857881217382296  66.07526676572607  8.403217573631254  -7.306552443427292  22.56041740477447  43.01835954118836  -25.32261984892307  15.80275342398115  0.000000
1.335  0.000000  0.000000  0.000000  -42.4537521166418  5.500257801423373  29.88721508388971  66.08497930085676  8.433552008104598  -7.280978231994181  22.480522086896464  43.0462277762316  -25.32836205420258  15.855400275761616  0.000000
1.3499999999999999  0.000000  0.000000  0.000000  -42.4990166226951  5.512929309988067  29.8900942588453  66.08195512316698  8.46890382064482  -7.267798654743411  22.41105407729899  43.0499387730391  -25.341091223693162  15.91103509017265  0.000000
1.365  0.000000  0.000000  0.000000  -42.528000083545884  5.521343898138258  29.864599198835567  66.06618294312449  8.51052351520502  -7.269919088082384  22.36429606277581  43.01997562986578  -25.362128720426234  15.96705709905962  0.000000
1.38  0.000000  0.000000  0.000000  -42.53377057649961  5.524989656167581  29.808077805379888  66.03414665849809  8.555560456177266  -7.2899321456563095  22.35169181362526  42.94618394583537  -25.3991163984561  16.024926323013375  0.000000
1.395  0.000000  0.000000  0.000000  -42.51125078758556  5.524885708450501  29.722560217869713  65.98016258298672  8.599511846759976  -7.332400059831162  22.394541667469  42.812945484049735  -25.448446758750087  16.083794192576807  0.000000
1.41  0.000000  0.000000  0.000000  -42.4620216474925  5.514963532343838  29.60634874042637  65.91227389524441  8.633318302968522  -7.406244669718687  22.510685427587493  42.61156380537667  -25.52319736764068  16.15237360617729  0.000000
1.425  0.000000  0.000000  0.000000  -42.39163886455373  5.471501182098873  29.45350017840793  65.83193596292077  8.662795809977728  -7.510989544560845  22.728228474332532  42.33105909870199  -25.61415186697495  16.22938992039208  0.000000
1.44  0.000000  0.000000  0.000000  -42.27115871407166  5.402633126736083  29.231505133652817  65.74969322219268  8.705306876761027  -7.643579704168204  23.04236967175531  41.95296620866404  -25.744542248546814  16.29979555552568  0.000000
1.4549999999999998  0.000000  0.000000  0.000000  -42.0578813286905  5.3125582704889585  28.914311575986705  65.62858921839646  8.790704927848932  -7.793289876473769  23.468767795985578  41.43526206300746  -25.881367676423803  16.366895500827376  0.000000
1.47  0.000000  0.000000  0.000000  -41.741769219882364  5.158188488032081  28.49823268179597  65.51202806690746  8.92351848934681  -8.031925040591696  24.042195671492216  40.76350612655104  -26.027724865453546  16.459170847917097  0.000000
